HIERARCHY
ROOT pelvis
{
  OFFSET 0 100 0
  CHANNELS 6 Xposition Yposition Zposition Zrotation Xrotation Yrotation
  JOINT pelvis_right_femur
  {
    OFFSET -10.78128 -3.44521 -0.5502486
    CHANNELS 3 Zrotation Xrotation Yrotation
    JOINT right_femur_tibia
    {
      OFFSET -0.8047443 -44.0398 -0.1307829
      CHANNELS 3 Zrotation Xrotation Yrotation
      JOINT right_tibia_foot
      {
        OFFSET 3.006224 -47.83518 -5
        CHANNELS 3 Zrotation Xrotation Yrotation
        End Site
        {
          OFFSET 0 -5 15
        }
      }
    }
  }
  JOINT pelvis_left_femur
  {
    OFFSET 10.78128 -3.44521 -0.5502486
    CHANNELS 3 Zrotation Xrotation Yrotation
    JOINT left_femur_tibia
    {
      OFFSET 0.8047443 -44.0398 -0.1307829
      CHANNELS 3 Zrotation Xrotation Yrotation
      JOINT left_tibia_foot
      {
        OFFSET -4.370144 -48.10324 -4.275266
        CHANNELS 3 Zrotation Xrotation Yrotation
        End Site
        {
          OFFSET 0 -5 15
        }
      }
    }
  }
  JOINT pelvis_spine1
  {
    OFFSET 0 6.468898 -3.129235
    CHANNELS 3 Zrotation Xrotation Yrotation
    JOINT spine1
    {
      OFFSET 0 23.15396 4.99043
      CHANNELS 3 Zrotation Xrotation Yrotation
      JOINT spine2
      {
        OFFSET 0 20.79997 -5.064912
        CHANNELS 3 Zrotation Xrotation Yrotation
        JOINT neck
        {
          OFFSET 0 14.38658 9.616178
          CHANNELS 3 Zrotation Xrotation Yrotation
          End Site
          {
            OFFSET 0 20 0
          }
        }
      }
      JOINT right_manubrium
      {
        OFFSET -5.722621 16.35077 3.967754
        CHANNELS 3 Zrotation Xrotation Yrotation
        JOINT right_clavicle
        {
          OFFSET -13.16364 1.694482 -4.693211
          CHANNELS 3 Zrotation Xrotation Yrotation
          JOINT right_humerus
          {
            OFFSET -28.5034 -0.3100689 -2.792744
            CHANNELS 3 Zrotation Xrotation Yrotation
            JOINT right_radius
            {
              OFFSET -25.15693 0.02248979 -1.271978
              CHANNELS 3 Zrotation Xrotation Yrotation
              End Site
              {
                OFFSET -15 0 0
              }
            }
          }
        }
      }
      JOINT left_manubrium
      {
        OFFSET 5.722621 16.35077 3.967754
        CHANNELS 3 Zrotation Xrotation Yrotation
        JOINT left_clavicle
        {
          OFFSET 13.16364 1.694482 -4.693211
          CHANNELS 3 Zrotation Xrotation Yrotation
          JOINT left_humerus
          {
            OFFSET 29.39168 -1.063119 -2.237045
            CHANNELS 3 Zrotation Xrotation Yrotation
            JOINT left_radius
            {
              OFFSET 24.59957 -0.9528479 0.9047498
              CHANNELS 3 Zrotation Xrotation Yrotation
              End Site
              {
                OFFSET 15 -0 -0
              }
            }
          }
        }
      }
    }
  }
}
MOTION
Frames: 11
Frame Time: 0.0416666666667
-38.54483 107.3744 426.7094 -8.481835 -8.867684 -38.26543 6.794841 10.76938 1.359535 -0 18.46504 -0 -5.772085 -4.75983 -2.034962 4.120921 -11.26585 -1.209328 -0 17.35402 -0 2.437487 0.2729779 14.04166 3.079177 -5.455932 8.178124 -0.4095384 20.36023 -6.393131 0.9534247 17.23326 2.908996 0.9532377 -17.11979 3.995833 -1.489318 -33.37955 14.12329 91.0764 8.737768 -12.90626 -0 0 30.62227 -32.04927 22.61219 19.16339 1.761405 -25.64539 -11.39215 -93.44473 6.552962 38.339 0 0 -14.7477 4.452667 13.46416 8.58916
-41.41604 107.3666 432.3559 -8.611395 -8.741981 -39.11183 6.794841 10.76938 1.359535 -0 18.46504 -0 -5.772085 -4.75983 -2.034962 4.120921 -11.26585 -1.209328 -0 17.35402 -0 2.437487 0.2729779 14.04166 3.079177 -5.455932 8.178124 -0.4095384 20.36023 -6.393131 0.9534247 17.23326 2.908996 0.9532377 -17.11979 3.995833 -1.489318 -33.37955 14.12329 91.0764 8.737768 -12.90626 -0 0 30.62227 -32.04927 22.61219 19.16339 1.761405 -25.64539 -11.39215 -93.44473 6.552962 38.339 0 0 -14.7477 4.452667 13.46416 8.58916
-44.37029 107.3589 437.9593 -8.739019 -8.614401 -39.95765 6.794841 10.76938 1.359535 -0 18.46504 -0 -5.772085 -4.75983 -2.034962 4.120921 -11.26585 -1.209328 -0 17.35402 -0 2.437487 0.2729779 14.04166 3.079177 -5.455932 8.178124 -0.4095384 20.36023 -6.393131 0.9534247 17.23326 2.908996 0.9532377 -17.11979 3.995833 -1.489318 -33.37955 14.12329 91.0764 8.737768 -12.90626 -0 0 30.62227 -32.04927 22.61219 19.16339 1.761405 -25.64539 -11.39215 -93.44473 6.552962 38.339 0 0 -14.7477 4.452667 13.46416 8.58916
-47.40693 107.3512 443.5186 -8.864682 -8.484974 -40.8029 6.794841 10.76938 1.359535 -0 18.46504 -0 -5.772085 -4.75983 -2.034962 4.120921 -11.26585 -1.209328 -0 17.35402 -0 2.437487 0.2729779 14.04166 3.079177 -5.455932 8.178124 -0.4095384 20.36023 -6.393131 0.9534247 17.23326 2.908996 0.9532377 -17.11979 3.995833 -1.489318 -33.37955 14.12329 91.0764 8.737768 -12.90626 -0 0 30.62227 -32.04927 22.61219 19.16339 1.761405 -25.64539 -11.39215 -93.44473 6.552962 38.339 0 0 -14.7477 4.452667 13.46416 8.58916
-50.5253 107.3434 449.0324 -8.98836 -8.353728 -41.64758 6.794841 10.76938 1.359535 -0 18.46504 -0 -5.772085 -4.75983 -2.034962 4.120921 -11.26585 -1.209328 -0 17.35402 -0 2.437487 0.2729779 14.04166 3.079177 -5.455932 8.178124 -0.4095384 20.36023 -6.393131 0.9534247 17.23326 2.908996 0.9532377 -17.11979 3.995833 -1.489318 -33.37955 14.12329 91.0764 8.737768 -12.90626 -0 0 30.62227 -32.04927 22.61219 19.16339 1.761405 -25.64539 -11.39215 -93.44473 6.552962 38.339 0 0 -14.7477 4.452667 13.46416 8.58916
-53.72473 107.3357 454.4996 -9.110028 -8.220693 -42.49169 6.794841 10.76938 1.359535 -0 18.46504 -0 -5.772085 -4.75983 -2.034962 4.120921 -11.26585 -1.209328 -0 17.35402 -0 2.437487 0.2729779 14.04166 3.079177 -5.455932 8.178124 -0.4095384 20.36023 -6.393131 0.9534247 17.23326 2.908996 0.9532377 -17.11979 3.995833 -1.489318 -33.37955 14.12329 91.0764 8.737768 -12.90626 -0 0 30.62227 -32.04927 22.61219 19.16339 1.761405 -25.64539 -11.39215 -93.44473 6.552962 38.339 0 0 -14.7477 4.452667 13.46416 8.58916
-57.00452 107.3279 459.919 -9.229662 -8.085899 -43.33522 6.794841 10.76938 1.359535 -0 18.46504 -0 -5.772085 -4.75983 -2.034962 4.120921 -11.26585 -1.209328 -0 17.35402 -0 2.437487 0.2729779 14.04166 3.079177 -5.455932 8.178124 -0.4095384 20.36023 -6.393131 0.9534247 17.23326 2.908996 0.9532377 -17.11979 3.995833 -1.489318 -33.37955 14.12329 91.0764 8.737768 -12.90626 -0 0 30.62227 -32.04927 22.61219 19.16339 1.761405 -25.64539 -11.39215 -93.44473 6.552962 38.339 0 0 -14.7477 4.452667 13.46416 8.58916
-60.36395 107.3202 465.2893 -9.347239 -7.949378 -44.17819 6.794841 10.76938 1.359535 -0 18.46504 -0 -5.772085 -4.75983 -2.034962 4.120921 -11.26585 -1.209328 -0 17.35402 -0 2.437487 0.2729779 14.04166 3.079177 -5.455932 8.178124 -0.4095384 20.36023 -6.393131 0.9534247 17.23326 2.908996 0.9532377 -17.11979 3.995833 -1.489318 -33.37955 14.12329 91.0764 8.737768 -12.90626 -0 0 30.62227 -32.04927 22.61219 19.16339 1.761405 -25.64539 -11.39215 -93.44473 6.552962 38.339 0 0 -14.7477 4.452667 13.46416 8.58916
-63.80228 107.3125 470.6095 -9.462738 -7.811158 -45.02059 6.794841 10.76938 1.359535 -0 18.46504 -0 -5.772085 -4.75983 -2.034962 4.120921 -11.26585 -1.209328 -0 17.35402 -0 2.437487 0.2729779 14.04166 3.079177 -5.455932 8.178124 -0.4095384 20.36023 -6.393131 0.9534247 17.23326 2.908996 0.9532377 -17.11979 3.995833 -1.489318 -33.37955 14.12329 91.0764 8.737768 -12.90626 -0 0 30.62227 -32.04927 22.61219 19.16339 1.761405 -25.64539 -11.39215 -93.44473 6.552962 38.339 0 0 -14.7477 4.452667 13.46416 8.58916
-67.31878 107.3047 475.8784 -9.576135 -7.671272 -45.86244 6.794841 10.76938 1.359535 -0 18.46504 -0 -5.772085 -4.75983 -2.034962 4.120921 -11.26585 -1.209328 -0 17.35402 -0 2.437487 0.2729779 14.04166 3.079177 -5.455932 8.178124 -0.4095384 20.36023 -6.393131 0.9534247 17.23326 2.908996 0.9532377 -17.11979 3.995833 -1.489318 -33.37955 14.12329 91.0764 8.737768 -12.90626 -0 0 30.62227 -32.04927 22.61219 19.16339 1.761405 -25.64539 -11.39215 -93.44473 6.552962 38.339 0 0 -14.7477 4.452667 13.46416 8.58916
-70.91268 107.297 481.0947 -9.68741 -7.529751 -46.70372 6.794841 10.76938 1.359535 -0 18.46504 -0 -5.772085 -4.75983 -2.034962 4.120921 -11.26585 -1.209328 -0 17.35402 -0 2.437487 0.2729779 14.04166 3.079177 -5.455932 8.178124 -0.4095384 20.36023 -6.393131 0.9534247 17.23326 2.908996 0.9532377 -17.11979 3.995833 -1.489318 -33.37955 14.12329 91.0764 8.737768 -12.90626 -0 0 30.62227 -32.04927 22.61219 19.16339 1.761405 -25.64539 -11.39215 -93.44473 6.552962 38.339 0 0 -14.7477 4.452667 13.46416 8.58916
